<svg id="visual" viewBox="0 0 960 540" width="960" height="540" xmlns="http://www.w3.org/2000/svg" xmlns:xlink="http://www.w3.org/1999/xlink" version="1.1"><rect x="0" y="0" width="960" height="540" fill="#FF621E"></rect><defs><linearGradient id="grad1_0" x1="43.8%" y1="0%" x2="100%" y2="100%"><stop offset="14.444444444444446%" stop-color="#6f0000" stop-opacity="1"></stop><stop offset="85.55555555555554%" stop-color="#6f0000" stop-opacity="1"></stop></linearGradient></defs><defs><linearGradient id="grad1_1" x1="43.8%" y1="0%" x2="100%" y2="100%"><stop offset="14.444444444444446%" stop-color="#6f0000" stop-opacity="1"></stop><stop offset="85.55555555555554%" stop-color="#831008" stop-opacity="1"></stop></linearGradient></defs><defs><linearGradient id="grad1_2" x1="43.8%" y1="0%" x2="100%" y2="100%"><stop offset="14.444444444444446%" stop-color="#971e0d" stop-opacity="1"></stop><stop offset="85.55555555555554%" stop-color="#831008" stop-opacity="1"></stop></linearGradient></defs><defs><linearGradient id="grad1_3" x1="43.8%" y1="0%" x2="100%" y2="100%"><stop offset="14.444444444444446%" stop-color="#971e0d" stop-opacity="1"></stop><stop offset="85.55555555555554%" stop-color="#ac2b11" stop-opacity="1"></stop></linearGradient></defs><defs><linearGradient id="grad1_4" x1="43.8%" y1="0%" x2="100%" y2="100%"><stop offset="14.444444444444446%" stop-color="#c03915" stop-opacity="1"></stop><stop offset="85.55555555555554%" stop-color="#ac2b11" stop-opacity="1"></stop></linearGradient></defs><defs><linearGradient id="grad1_5" x1="43.8%" y1="0%" x2="100%" y2="100%"><stop offset="14.444444444444446%" stop-color="#c03915" stop-opacity="1"></stop><stop offset="85.55555555555554%" stop-color="#d54618" stop-opacity="1"></stop></linearGradient></defs><defs><linearGradient id="grad1_6" x1="43.8%" y1="0%" x2="100%" y2="100%"><stop offset="14.444444444444446%" stop-color="#ea541b" stop-opacity="1"></stop><stop offset="85.55555555555554%" stop-color="#d54618" stop-opacity="1"></stop></linearGradient></defs><defs><linearGradient id="grad1_7" x1="43.8%" y1="0%" x2="100%" y2="100%"><stop offset="14.444444444444446%" stop-color="#ea541b" stop-opacity="1"></stop><stop offset="85.55555555555554%" stop-color="#ff621e" stop-opacity="1"></stop></linearGradient></defs><defs><linearGradient id="grad2_0" x1="0%" y1="0%" x2="56.3%" y2="100%"><stop offset="14.444444444444446%" stop-color="#6f0000" stop-opacity="1"></stop><stop offset="85.55555555555554%" stop-color="#6f0000" stop-opacity="1"></stop></linearGradient></defs><defs><linearGradient id="grad2_1" x1="0%" y1="0%" x2="56.3%" y2="100%"><stop offset="14.444444444444446%" stop-color="#831008" stop-opacity="1"></stop><stop offset="85.55555555555554%" stop-color="#6f0000" stop-opacity="1"></stop></linearGradient></defs><defs><linearGradient id="grad2_2" x1="0%" y1="0%" x2="56.3%" y2="100%"><stop offset="14.444444444444446%" stop-color="#831008" stop-opacity="1"></stop><stop offset="85.55555555555554%" stop-color="#971e0d" stop-opacity="1"></stop></linearGradient></defs><defs><linearGradient id="grad2_3" x1="0%" y1="0%" x2="56.3%" y2="100%"><stop offset="14.444444444444446%" stop-color="#ac2b11" stop-opacity="1"></stop><stop offset="85.55555555555554%" stop-color="#971e0d" stop-opacity="1"></stop></linearGradient></defs><defs><linearGradient id="grad2_4" x1="0%" y1="0%" x2="56.3%" y2="100%"><stop offset="14.444444444444446%" stop-color="#ac2b11" stop-opacity="1"></stop><stop offset="85.55555555555554%" stop-color="#c03915" stop-opacity="1"></stop></linearGradient></defs><defs><linearGradient id="grad2_5" x1="0%" y1="0%" x2="56.3%" y2="100%"><stop offset="14.444444444444446%" stop-color="#d54618" stop-opacity="1"></stop><stop offset="85.55555555555554%" stop-color="#c03915" stop-opacity="1"></stop></linearGradient></defs><defs><linearGradient id="grad2_6" x1="0%" y1="0%" x2="56.3%" y2="100%"><stop offset="14.444444444444446%" stop-color="#d54618" stop-opacity="1"></stop><stop offset="85.55555555555554%" stop-color="#ea541b" stop-opacity="1"></stop></linearGradient></defs><defs><linearGradient id="grad2_7" x1="0%" y1="0%" x2="56.3%" y2="100%"><stop offset="14.444444444444446%" stop-color="#ff621e" stop-opacity="1"></stop><stop offset="85.55555555555554%" stop-color="#ea541b" stop-opacity="1"></stop></linearGradient></defs><g transform="translate(960, 0)"><path d="M0 486C-70.4 486.8 -140.9 487.5 -186 449C-231.1 410.5 -250.9 332.7 -280.7 280.7C-310.5 228.7 -350.3 202.5 -386.2 160C-422.1 117.5 -454 58.7 -486 0L0 0Z" fill="#f45b1d"></path><path d="M0 425.3C-61.6 425.9 -123.3 426.6 -162.7 392.9C-202.2 359.2 -219.6 291.1 -245.6 245.6C-271.7 200.1 -306.5 177.1 -337.9 140C-369.3 102.8 -397.3 51.4 -425.2 0L0 0Z" fill="#e04d1a"></path><path d="M0 364.5C-52.8 365.1 -105.6 365.6 -139.5 336.8C-173.3 307.9 -188.2 249.5 -210.5 210.5C-232.9 171.5 -262.7 151.8 -289.6 120C-316.5 88.1 -340.5 44.1 -364.5 0L0 0Z" fill="#cb3f16"></path><path d="M0 303.8C-44 304.2 -88 304.7 -116.2 280.6C-144.4 256.6 -156.8 208 -175.5 175.5C-194.1 142.9 -218.9 126.5 -241.4 100C-263.8 73.4 -283.8 36.7 -303.7 0L0 0Z" fill="#b63213"></path><path d="M0 243C-35.2 243.4 -70.4 243.8 -93 224.5C-115.6 205.2 -125.5 166.4 -140.4 140.4C-155.3 114.4 -175.2 101.2 -193.1 80C-211 58.7 -227 29.4 -243 0L0 0Z" fill="#a1250f"></path><path d="M0 182.3C-26.4 182.5 -52.8 182.8 -69.7 168.4C-86.7 153.9 -94.1 124.8 -105.3 105.3C-116.4 85.8 -131.4 75.9 -144.8 60C-158.3 44.1 -170.3 22 -182.2 0L0 0Z" fill="#8d170a"></path><path d="M0 121.5C-17.6 121.7 -35.2 121.9 -46.5 112.3C-57.8 102.6 -62.7 83.2 -70.2 70.2C-77.6 57.2 -87.6 50.6 -96.5 40C-105.5 29.4 -113.5 14.7 -121.5 0L0 0Z" fill="#790704"></path><path d="M0 60.8C-8.8 60.8 -17.6 60.9 -23.2 56.1C-28.9 51.3 -31.4 41.6 -35.1 35.1C-38.8 28.6 -43.8 25.3 -48.3 20C-52.8 14.7 -56.8 7.3 -60.7 0L0 0Z" fill="#6f0000"></path></g><g transform="translate(0, 540)"><path d="M0 -486C52.6 -441.8 105.2 -397.6 151.9 -366.8C198.6 -335.9 239.4 -318.4 293.4 -293.4C347.5 -268.5 414.7 -236.1 449 -186C483.3 -135.8 484.7 -67.9 486 0L0 0Z" fill="#f45b1d"></path><path d="M0 -425.2C46 -386.6 92.1 -347.9 132.9 -320.9C173.8 -293.9 209.5 -278.6 256.8 -256.8C304 -234.9 362.9 -206.6 392.9 -162.7C422.9 -118.9 424.1 -59.4 425.3 0L0 0Z" fill="#e04d1a"></path><path d="M0 -364.5C39.5 -331.4 78.9 -298.2 113.9 -275.1C149 -251.9 179.6 -238.8 220.1 -220.1C260.6 -201.4 311 -177.1 336.8 -139.5C362.5 -101.9 363.5 -50.9 364.5 0L0 0Z" fill="#cb3f16"></path><path d="M0 -303.7C32.9 -276.1 65.8 -248.5 95 -229.2C124.1 -210 149.6 -199 183.4 -183.4C217.2 -167.8 259.2 -147.6 280.6 -116.2C302.1 -84.9 302.9 -42.4 303.8 0L0 0Z" fill="#b63213"></path><path d="M0 -243C26.3 -220.9 52.6 -198.8 76 -183.4C99.3 -168 119.7 -159.2 146.7 -146.7C173.7 -134.3 207.4 -118.1 224.5 -93C241.7 -67.9 242.3 -34 243 0L0 0Z" fill="#a1250f"></path><path d="M0 -182.2C19.7 -165.7 39.5 -149.1 57 -137.5C74.5 -126 89.8 -119.4 110 -110C130.3 -100.7 155.5 -88.5 168.4 -69.7C181.2 -50.9 181.7 -25.5 182.3 0L0 0Z" fill="#8d170a"></path><path d="M0 -121.5C13.2 -110.5 26.3 -99.4 38 -91.7C49.7 -84 59.9 -79.6 73.4 -73.4C86.9 -67.1 103.7 -59 112.3 -46.5C120.8 -34 121.2 -17 121.5 0L0 0Z" fill="#790704"></path><path d="M0 -60.7C6.6 -55.2 13.2 -49.7 19 -45.8C24.8 -42 29.9 -39.8 36.7 -36.7C43.4 -33.6 51.8 -29.5 56.1 -23.2C60.4 -17 60.6 -8.5 60.8 0L0 0Z" fill="#6f0000"></path></g></svg>